# xmcd
#
# Track frame offsets:
#	150
#	2078
#	13054
#	26118
#	41006
#	52702
#	70730
#	85642
#	94650
#	109034
#	119770
#	139242
#	150554
#	167050
#
# Disc length: 2470 seconds
#
# Revision: 1
# Processed by: cddbd v1.5.2PL0 Copyright (c) Steve Scherf et al.
# Submitted via: audiograbber 1.83.01
#
DISCID=ac09a40e
DTITLE=Acouticatz - Everything Old Is New Again
DYEAR=2006
DGENRE=Country
TTITLE0=Old Joe Clark
TTITLE1=New Joe Clark
TTITLE2=Love Someone Like Me
TTITLE3=Stray Dogs and Alley Cats
TTITLE4=Til The End Of The World Rolls Round
TTITLE5=John Deere Tractor
TTITLE6=Drink Up And Go Home
TTITLE7=Crossing The Transippy
TTITLE8=Teardrops Fell Like Raindrops
TTITLE9=How High The Moon
TTITLE10=Gypsy Waltz
TTITLE11=Love For An Angel
TTITLE12=Move That Mountain
TTITLE13=Jerusalem Ridge
EXTD=
EXTT0=
EXTT1=
EXTT2=
EXTT3=
EXTT4=
EXTT5=
EXTT6=
EXTT7=
EXTT8=
EXTT9=
EXTT10=
EXTT11=
EXTT12=
EXTT13=
PLAYORDER=
